<svg width="246" height="212" viewBox="0 0 246 212" fill="none" xmlns="http://www.w3.org/2000/svg">
<path d="M128.824 59.2639C123.468 59.2639 118.891 63.8734 115.626 69.7463C113.297 73.9355 111.139 77.7817 110.302 83.0071C109.622 87.2495 108.696 93.6674 109.665 98.036C110.678 102.605 113.084 109.533 115.717 112.56C122.794 120.696 130.98 124.052 140.292 124.052C146.947 124.052 154.637 124.407 158.724 115.401C160.481 111.528 161.441 105.605 162.091 101.193C162.726 96.8903 163.229 93.3083 163.229 88.8166C163.229 84.9621 163.457 81.997 161.818 78.7131C160.252 75.5733 156.757 72.2624 154.537 70.062C149.802 65.3691 143.326 61.3783 137.425 60.9689C133.996 60.731 130.558 59.2639 127.186 59.2639" stroke="#2D3634" stroke-linecap="round" stroke-linejoin="round"/>
<path d="M131.729 73.7692C128.471 73.7692 125.686 76.3147 123.7 79.558C122.283 81.8714 120.97 83.9954 120.461 86.8811C120.047 89.2239 119.484 92.7682 120.073 95.1806C120.689 97.7036 122.153 101.529 123.755 103.201C128.061 107.694 133.041 109.548 138.707 109.548C142.755 109.548 147.434 109.744 149.92 104.77C150.989 102.631 151.573 99.3605 151.969 96.9242C152.355 94.548 152.661 92.5698 152.661 90.0893C152.661 87.9607 152.8 86.3233 151.803 84.5098C150.85 82.7758 148.723 80.9475 147.373 79.7323C144.492 77.1407 140.552 74.9368 136.962 74.7107C134.876 74.5794 132.784 73.7692 130.733 73.7692" stroke="#2D3634" stroke-linecap="round" stroke-linejoin="round"/>
<path d="M124.482 25.3893C130.834 25.3893 149.88 24.5482 143.528 24.5482" stroke="#2D3634" stroke-linecap="round" stroke-linejoin="round"/>
<path d="M123.825 26.2303C123.168 30.5425 121.756 36.0924 119.885 39.6864" stroke="#2D3634" stroke-linecap="round" stroke-linejoin="round"/>
<path d="M144.841 24.5482C144.891 27.0871 146.117 32.0787 147.797 33.7993C148.269 34.2834 150.095 40.6205 150.095 39.6864" stroke="#2D3634" stroke-linecap="round" stroke-linejoin="round"/>
<path d="M150.095 38.8454C159.29 38.8454 168.484 38.8454 177.679 38.8454" stroke="#2D3634" stroke-linecap="round" stroke-linejoin="round"/>
<path d="M119.885 39.6864C112.223 39.6864 104.561 39.6864 96.8985 39.6864" stroke="#2D3634" stroke-linecap="round" stroke-linejoin="round"/>
<path d="M96.2418 39.6864C89.8932 39.6864 83.5446 39.6864 77.196 39.6864" stroke="#2D3634" stroke-linecap="round" stroke-linejoin="round"/>
<path d="M175.708 38.8454C183.152 38.8454 190.595 38.8454 198.038 38.8454" stroke="#2D3634" stroke-linecap="round" stroke-linejoin="round"/>
<path d="M198.038 38.8454C198.038 44.037 197.594 52.4475 199.206 57.3476C201.073 63.0275 198.797 72.2755 199.388 78.3261C200.729 92.0611 200.008 106.477 200.008 120.423" stroke="#2D3634" stroke-linecap="round" stroke-linejoin="round"/>
<path d="M77.196 40.5274C77.196 56.7421 76.5393 73.003 76.5393 89.306C76.5393 99.3293 76.0529 109.179 77.8528 118.975C78.1326 120.498 80.9952 128.322 81.7933 128.833" stroke="#2D3634" stroke-linecap="round" stroke-linejoin="round"/>
<path d="M81.1365 127.151C89.0334 127.151 96.9898 127.992 104.816 127.992C108.036 127.992 111.175 129.324 114.375 129.628C118.36 130.006 122.455 129.674 126.452 129.674C138.979 129.674 151.883 129.674 164.398 129.674C176.286 129.674 211.896 127.151 200.008 127.151" stroke="#2D3634" stroke-linecap="round" stroke-linejoin="round"/>
<path d="M106.75 38.8454C103.247 35.5834 99.1761 35.4814 94.9283 35.4814C91.6634 35.4814 89.2359 38.8454 86.3905 38.8454" stroke="#2D3634" stroke-linecap="round" stroke-linejoin="round"/>
<path d="M109.377 80.0548C105.264 80.1833 101.496 83.363 101.496 88.8854C101.496 94.072 101.749 96.034 106.093 96.034" stroke="#2D3634" stroke-linecap="round" stroke-linejoin="round"/>
<path d="M163.887 99.3981C165.361 100.828 171.104 104.959 166.514 105.285C164.277 105.444 162.979 107.808 160.603 107.808" stroke="#2D3634" stroke-linecap="round" stroke-linejoin="round"/>
<path d="M196.724 119.582C188.625 119.582 181.122 122.946 173.081 122.946C166.295 122.946 159.509 122.946 152.722 122.946" stroke="#2D3634" stroke-linecap="round" stroke-linejoin="round"/>
<path d="M123.825 122.105C115.02 122.105 106.215 122.105 97.4093 122.105C94.5206 122.105 90.8643 122.864 88.0324 122.059C86.4436 121.606 81.1018 121.175 80.4798 119.582" stroke="#2D3634" stroke-linecap="round" stroke-linejoin="round"/>
<path d="M76.5393 62.3937C90.285 62.3937 104.403 63.2347 117.914 63.2347" stroke="#2D3634" stroke-linecap="round" stroke-linejoin="round"/>
<path d="M149.438 64.9167C165.638 64.9167 181.838 64.9167 198.038 64.9167" stroke="#2D3634" stroke-linecap="round" stroke-linejoin="round"/>
<path d="M188.843 37.1634C187.082 31.382 187.173 32.3428 183.261 31.2296C181.14 30.6259 179.266 30.4353 177.022 30.4353C174.06 30.4353 171.111 34.0365 171.111 38.0044" stroke="#2D3634" stroke-linecap="round" stroke-linejoin="round"/>
<path d="M201.322 67.4397C205.092 69.5089 207.889 73.0115 211.1 76.2236C214.918 80.043 219.008 83.6659 222.666 87.7174C230.808 96.7348 240.539 109.526 243.025 123.32C245.036 134.48 246.596 148.795 242.04 159.297C237.039 170.824 227.104 176.051 217.813 180.322C202.748 187.247 184.34 184.34 168.594 184.34C159.516 184.34 150.414 184.113 141.339 184.387C131.828 184.673 123.874 188.907 115.069 193.077C110.178 195.394 105.336 196.297 100.328 197.796C95.726 199.174 91.361 201.657 86.6824 202.842C64.3653 208.495 41.0787 194.248 21.6642 181.817C17.3628 179.063 11.5471 175.927 8.27382 171.211C5.24996 166.855 4.23374 161.983 2.98334 156.493C0.528508 145.715 -1.02229 132.774 6.92384 125.142C20.8487 111.769 38.1836 110.131 53.9179 102.575C60.5107 99.4093 66.0537 92.8966 68.9867 84.6337C70.0093 81.7527 70.7825 78.7702 71.7961 75.8498C72.6113 73.5009 73.768 72.8552 74.569 70.8037" stroke="#2D3634" stroke-linecap="round" stroke-linejoin="round"/>
<path d="M200.008 81.7369C214.573 85.0941 224.322 102.892 230.511 118.741C232.237 123.163 232.501 128.956 233.648 133.693C234.631 137.747 235.473 142.215 235.473 146.495C235.473 153.178 234.816 160.474 234.816 166.679" stroke="#2D3634" stroke-linecap="round" stroke-linejoin="round"/>
<path d="M234.816 170.884C234.816 180.599 228.267 185.863 222.666 191.442C219.821 194.275 214.611 196.114 211.136 196.114C205.154 196.114 199.336 198.637 193.441 198.637C181.96 198.637 170.479 198.637 158.998 198.637C149.036 198.637 138.049 197.046 128.277 199.665C115.114 203.193 101.934 206.217 88.6892 208.729C77.2181 210.905 64.8603 211.66 53.2247 210.365C46.47 209.612 40.2106 205.45 33.8506 203.029C28.4483 200.972 22.3089 197.781 18.2345 192.563C14.0819 187.246 8.23734 179.675 8.23734 171.725" stroke="#2D3634" stroke-linecap="round" stroke-linejoin="round"/>
<path d="M8.23735 170.043C8.23735 161.02 6.93704 150.237 12.1778 143.131C15.8315 138.177 19.9015 133.186 24.7291 130.095C31.8991 125.504 40.2528 126.657 47.3504 122.526C53.2156 119.112 60.8087 115.277 63.4043 106.967C64.5077 103.435 68.2992 101.013 68.6583 96.8751C68.9453 93.5669 71.5301 90.3612 72.5988 87.624" stroke="#2D3634" stroke-linecap="round" stroke-linejoin="round"/>
<path d="M108.72 25.3893C104.546 25.3893 101.3 24.4838 97.5553 22.2121C95.4028 20.9065 93.3968 19.5022 90.9878 19.5022" stroke="#2D3634" stroke-linecap="round" stroke-linejoin="round"/>
<path d="M113.974 18.6612C110.105 12.9133 105.412 3.51261 99.5255 1" stroke="#2D3634" stroke-linecap="round" stroke-linejoin="round"/>
<path d="M211.173 64.9167C218.178 64.9167 225.184 64.9167 232.189 64.9167" stroke="#2D3634" stroke-linecap="round" stroke-linejoin="round"/>
<path d="M208.546 57.3476C213.408 55.2724 228.119 50.6195 222.994 50.6195" stroke="#2D3634" stroke-linecap="round" stroke-linejoin="round"/>
</svg>
