<svg width="162" height="212" viewBox="0 0 162 212" fill="none" xmlns="http://www.w3.org/2000/svg">
<path d="M136.632 185.912C136.632 167.149 137.474 148.813 137.474 130.159C137.474 119.662 140.854 97.9183 131.95 93.4558C127.789 91.3701 123.032 91.5154 118.748 89.9971C114.314 88.4256 107.604 87.4159 102.923 87.4159C91.2042 87.4159 79.7521 86.4867 67.9977 86.4867C59.8359 86.4867 51.6741 86.4867 43.5123 86.4867C40.0731 86.4867 36.6027 86.3464 33.1657 86.4867C27.7861 86.7064 18.4089 94.2818 17.8565 100.373C16.9104 110.805 14.4388 120.466 14.4388 131.089C14.4388 138.212 14.4388 145.336 14.4388 152.46C14.4388 164.975 15.5139 180.061 23.7086 189.628C33.0627 200.549 45.6042 201.912 58.7279 203.773C71.836 205.631 84.8457 205.425 98.0544 205.425C106.768 205.425 118.611 205.861 126.519 201.502C128.397 200.466 132.616 196.997 133.214 194.687C133.591 193.232 134.165 186.977 134.946 188.699" stroke="#2D3634" stroke-linecap="round" stroke-linejoin="round"/>
<path d="M136.632 186.841C136.632 191.116 137.474 194.561 137.474 198.92C137.474 201.143 135.293 202.771 133.916 204.289C130.68 207.858 122.479 211 118.092 211C110.64 211 103.435 209.142 96.1817 209.142C89.1591 209.142 82.1365 209.142 75.1139 209.142C61.0737 209.142 46.8275 208.212 32.6039 208.212C27.1468 208.212 21.711 208.023 18.6524 202.121C15.9523 196.911 16.967 190.07 16.967 184.053" stroke="#2D3634" stroke-linecap="round" stroke-linejoin="round"/>
<path d="M75.1139 2.85841C69.11 2.85841 62.5953 1.01642 58.6342 6.57522C54.5275 12.3384 50.6753 16.0072 50.6753 23.7655C50.6753 42.1739 77.265 54.1488 91.3126 47.4602C97.1845 44.6643 99.5525 38.3013 99.5525 31.6121C99.5525 28.4631 99.5525 25.3142 99.5525 22.1652C99.5525 17.3189 98.1578 16.4336 95.7603 12.615C91.8954 6.45951 86.1724 5.41307 80.3574 3.58112C76.9721 2.5146 66.5368 1 70.0576 1" stroke="#2D3634" stroke-linecap="round" stroke-linejoin="round"/>
<path d="M97.0244 51.177C91.3548 51.3295 86.1733 54.7143 80.6384 54.8938C75.3115 55.0666 69.9559 54.8938 64.6269 54.8938C61.545 54.8938 55.8294 52.4614 53.3907 50.0413C49.8721 46.5494 37.8176 51.2451 33.8212 53.4484C27.8204 56.7567 21.383 59.3165 16.5456 64.6504C11.6134 70.0889 6.87679 79.1829 4.74768 86.4867C1.49631 97.6403 0.955484 108.255 0.955484 119.938C0.955484 124.457 0.455585 127.75 3.48361 131.088C5.59286 133.414 7.69716 135.415 7.69716 131.088" stroke="#2D3634" stroke-linecap="round" stroke-linejoin="round"/>
<path d="M97.8671 49.3186C106.528 49.3186 113.627 49.1434 121.837 52.1062C129.837 54.9931 136.318 57.5285 143.654 62.3275C149.155 65.9253 153.118 70.9845 156.014 77.1947C157.164 79.6608 158.066 82.5257 159.385 84.8348C161.799 89.0617 160.734 92.1823 160.415 97.3275C159.738 108.248 163.933 130.094 153.486 136.87C151.326 138.271 148.801 141.314 146.932 143.375C145.65 144.788 141.971 146.885 144.216 146.885" stroke="#2D3634" stroke-linecap="round" stroke-linejoin="round"/>
<path d="M83.541 135.735C80.6821 138.027 78.1801 139.451 74.6926 139.451C72.8532 139.451 70.4447 138.924 69.0277 140.174C66.0367 142.812 64.5903 145.995 65.8909 151.015C66.6201 153.829 75.0794 152.46 77.2207 152.46C80.7596 152.46 81.0129 144.073 81.0129 141.31" stroke="#2D3634" stroke-linecap="round" stroke-linejoin="round"/>
<path d="M73.4285 134.805C73.4285 131.686 72.2011 128.301 75.5352 128.301C76.6999 128.301 78.4005 127.041 77.8293 128.301C76.6193 130.969 75.9895 132.464 73.4285 133.876" stroke="#2D3634" stroke-linecap="round" stroke-linejoin="round"/>
</svg>
