<svg width="188" height="212" viewBox="0 0 188 212" fill="none" xmlns="http://www.w3.org/2000/svg">
<path d="M11.0131 3.78146C64.4307 3.78146 118.09 2.39073 171.38 2.39073" stroke="#2D3634" stroke-linecap="round" stroke-linejoin="round"/>
<path d="M8.93039 3.78146C-1.8793 23.6317 1.42616 50.1006 1.64099 73.6269C1.9046 102.496 6.33042 133.828 13.0958 160.934" stroke="#2D3634" stroke-linecap="round" stroke-linejoin="round"/>
<path d="M174.504 1C177.941 12.0703 181.156 21.1592 183.355 32.9095C185.854 46.2589 185.959 59.6318 185.959 73.3179C185.959 89.131 185.959 104.944 185.959 120.757C185.959 124.358 184.564 138.446 187 140.073" stroke="#2D3634" stroke-linecap="round" stroke-linejoin="round"/>
<path d="M187 140.073C181.712 156.16 163.927 163.156 151.826 164.951C125.022 168.929 98.0038 167.887 71.0639 167.887C57.4239 167.887 43.9119 169.278 30.2201 169.278C26.5947 169.278 22.9693 169.278 19.3438 169.278C15.7722 169.278 12.4447 166.497 8.93042 166.497" stroke="#2D3634" stroke-linecap="round" stroke-linejoin="round"/>
<path d="M71.4109 177.623C70.2993 185.417 69.3455 192.079 67.477 199.565C66.8471 202.089 66.2042 209.79 66.2042 209.609" stroke="#2D3634" stroke-linecap="round" stroke-linejoin="round"/>
<path d="M66.2042 211C85.2081 211 103.506 209.609 122.495 209.609C124.631 209.609 132.472 211.481 130.247 206.132C128.792 202.636 126.769 198.093 126.602 194.311C126.367 188.976 123.207 179.681 121.395 174.841" stroke="#2D3634" stroke-linecap="round" stroke-linejoin="round"/>
<path d="M169.369 9.09771C142.762 9.09771 116.155 9.09771 89.5488 9.09771C69.8501 9.09771 51.4949 11.9878 31.841 11.9878C22.8237 11.9878 15.4012 14.13 11.886 27.0806C8.79824 38.4563 10.8073 54.729 10.8073 66.8998C10.8073 79.6107 11.886 92.5442 11.886 105.595C11.886 113.12 12.9646 120.578 12.9646 128.314C12.9646 134.539 14.0818 138.952 17.8186 142.845C22.756 147.99 32.0874 152.158 38.3728 152.158C54.8896 152.158 71.434 153.603 88.0506 153.603C97.1792 153.603 106.308 153.603 115.436 153.603C119.918 153.603 127.157 155.304 131.137 152.88C135.087 150.475 143.139 150.713 147.556 150.713C150.745 150.713 158.798 150.745 161.818 148.947C181.395 137.29 173.647 98.3604 175.781 75.4898C177.02 62.2072 177.998 49.3801 177.998 35.7509C177.998 26.5865 177.045 9.09771 167.212 9.09771" stroke="#2D3634" stroke-linecap="round" stroke-linejoin="round"/>
<path d="M71.3134 71.8468C71.3134 74.7078 71.848 77.5109 71.848 80.2624C71.848 82.12 72.917 83.8414 72.917 85.7077" stroke="#2D3634" stroke-linecap="round" stroke-linejoin="round"/>
<path d="M91.3584 78.5954C88.3594 78.5954 87.3494 78.233 87.3494 81.8822C87.3494 83.6218 91.3584 84.0351 91.3584 83.056C91.3584 79.2215 91.3584 67.7178 91.3584 71.5524" stroke="#2D3634" stroke-linecap="round" stroke-linejoin="round"/>
<path d="M93.7638 78.2442C93.7638 80.4705 93.7638 82.5655 93.7638 84.6415" stroke="#2D3634" stroke-linecap="round" stroke-linejoin="round"/>
<path d="M95.3674 84.1578C95.4192 81.2418 96.3492 79.1458 98.46 79.3206C99.7775 79.4297 99.3224 84.0392 100.178 84.6415" stroke="#2D3634" stroke-linecap="round" stroke-linejoin="round"/>
<path d="M105.251 79.3771C103.737 79.3771 102.244 78.8402 101.484 80.8136C101.074 81.8796 100.69 84.6442 101.935 84.6442C103.4 84.6442 103.694 83.8097 104.227 82.25C104.519 81.3974 105.251 79.0202 105.251 81.053C105.251 82.8491 105.1 84.753 105.271 86.5329C105.401 87.8816 106.293 91.3763 105.394 92.5449C103.871 94.5244 101.664 94.2208 99.7239 94.2208C97.4767 94.2208 96.251 92.443 94.5656 91.3478" stroke="#2D3634" stroke-linecap="round" stroke-linejoin="round"/>
<path d="M75.3606 78.4604C74.6284 79.1221 74.5383 79.8821 74.5383 80.9943C74.5383 81.7303 74.3977 83.0662 74.9084 83.5883C75.4982 84.1913 76.1152 84.5285 76.8726 84.6151C77.9143 84.7342 78.497 84.4771 79.0607 83.3001C79.3925 82.6076 79.3394 81.636 79.3074 80.8382C79.2893 80.3843 78.816 79.8679 78.6039 79.5892C77.7706 78.4939 76.742 78.2442 75.6073 78.2442" stroke="#2D3634" stroke-linecap="round" stroke-linejoin="round"/>
<path d="M84.808 78.3136C84.1012 78.3136 82.8896 77.9947 82.283 78.724C81.7965 79.3089 81.5897 80.8817 81.8501 81.7034C82.3612 83.3163 84.3553 83.4446 84.7919 81.6753C84.9551 81.0142 84.9522 80.3716 84.9522 79.6796C84.9522 79.2778 85.0244 78.1456 85.0244 79.1737C85.0244 80.0376 85.1161 80.8129 85.2969 81.6303C85.3851 82.0288 85.4658 83.3789 85.7458 83.5753" stroke="#2D3634" stroke-linecap="round" stroke-linejoin="round"/>
<path d="M93.7318 76.3764C93.1261 76.7404 93.7752 77.0813 93.8732 76.8521C93.9886 76.5825 93.9327 76.3134 93.6846 76.3134" stroke="#2D3634" stroke-linecap="round" stroke-linejoin="round"/>
<path d="M107.358 84.2476C107.231 84.2476 107.072 84.1793 107.005 84.342C106.967 84.4313 106.956 84.5624 107.052 84.5624C107.252 84.5624 107.311 84.5996 107.311 84.3105" stroke="#2D3634" stroke-linecap="round" stroke-linejoin="round"/>
<path d="M109.008 84.3105C108.46 84.622 109.056 84.7554 109.056 84.4365" stroke="#2D3634" stroke-linecap="round" stroke-linejoin="round"/>
<path d="M110.612 84.3105C110.455 84.3158 110.376 84.2886 110.376 84.4994C110.376 84.5521 110.356 84.6975 110.386 84.7373C110.506 84.8968 110.612 84.6198 110.612 84.4994" stroke="#2D3634" stroke-linecap="round" stroke-linejoin="round"/>
</svg>
