<svg width="242" height="212" viewBox="0 0 242 212" fill="none" xmlns="http://www.w3.org/2000/svg">
<path d="M215.571 111.351C221.703 114.664 227.188 117.627 233.256 120.43C237.409 122.349 241 125.444 241 131.464C241 139.454 240.393 140.264 234.407 140.264C229.466 140.264 224.579 137.75 219.809 137.75C208.769 137.75 209.92 124.046 209.92 113.237C209.92 109.83 213.004 102.552 216.041 102.552C219.141 102.552 219.338 102.815 219.338 106.952C219.338 109.695 216.512 109.003 216.512 112.608" stroke="#2D3634" stroke-linecap="round" stroke-linejoin="round"/>
<path d="M225.931 140.264C225.931 150.74 225.931 161.215 225.931 171.691C225.931 176.09 225.931 180.49 225.931 184.89C225.931 188.603 229.665 190.26 231.372 192.083C233.087 193.914 237.233 192.785 237.233 197.461C237.233 200.766 232.522 201.86 230.64 201.86C227.562 201.86 223.751 202.68 220.751 201.79C216.855 200.635 218.334 193.816 217.245 190.547C215.189 184.373 217.888 170.314 214.419 165.685C212.192 162.711 198.199 165.405 194.85 165.405C191.619 165.405 189.82 162.891 186.845 162.891C186.068 162.891 183.988 160.521 183.601 162.332C183.176 164.318 183.548 167.112 183.548 169.177C183.548 173.576 183.548 177.976 183.548 182.376C183.548 187.204 188.021 188.416 190.35 191.524C198.085 201.848 185.6 196.904 182.397 200.324C181.055 201.757 173.647 201.163 173.24 198.718C172.554 194.597 171.304 189.724 171.304 185.518C171.304 176.719 171.304 167.919 171.304 159.12C171.304 148.195 168.939 145.208 163.56 138.029C161.448 135.209 158.119 132.869 158.119 128.322C158.119 124.92 162.393 119.283 162.828 123.922C163.425 130.292 174.102 130.749 177.897 133.001C184.206 136.743 191.629 132.627 197.676 136.213C199.733 137.434 204.401 137.75 206.623 137.75C209.758 137.75 212.896 138.277 215.571 136.493" stroke="#2D3634" stroke-linecap="round" stroke-linejoin="round"/>
<path d="M214.629 137.75C202.656 134.405 191.45 126.612 180.723 119.453C174.237 115.124 162.797 107.206 158.851 98.7807C155.457 91.5311 147.546 85.921 142.631 80.5532C138.099 75.604 127.757 73.0448 125.155 66.0969" stroke="#2D3634" stroke-linecap="round" stroke-linejoin="round"/>
<path d="M42.4406 47.4452C32.9083 52.4751 23.2934 56.7313 14.1857 62.8094C11.3558 64.6978 7.70148 68.3029 6.18008 71.958C5.21269 74.2822 3.58678 81.3895 2.41275 82.6431C1.42173 83.7013 1 93.2695 1 95.2138C1 100.391 4.15892 101.499 7.59283 101.499C11.5217 101.499 13.0891 101.791 15.1275 97.0296C16.6552 93.4613 18.9999 91.3023 21.2494 88.2999C23.6745 85.0631 34.3921 71.2023 38.464 76.6371C40.2348 79.0006 39.0058 99.6357 37.2605 101.499C35.9875 102.858 35.6962 112.527 35.1153 115.048C34.3175 118.508 33.1661 124.636 33.0223 127.898C32.5899 137.709 27.7619 145.296 36.2664 151.782C38.8042 153.717 42.1131 157.794 44.3243 160.581C45.7732 162.408 47.5845 161.269 49.0335 163.095C50.5151 164.963 52.5149 166.829 53.7949 168.822C57.1454 174.039 58.814 176.857 61.068 183.209C63.0036 188.663 64.9399 194.271 67.1376 199.55C71.3246 209.61 81.5434 210.864 89.0613 210.864C94.9098 210.864 89.8472 189.506 89.5322 185.723C88.9058 178.198 82.1407 165.688 77.7593 161.14C71.5534 154.698 69.7538 147.161 69.7538 136.976C69.7538 126.339 71.6374 116.129 71.6374 105.899C71.6374 101.499 71.6374 97.0994 71.6374 92.6997C71.6374 88.7376 69.7538 84.3731 69.7538 80.129" stroke="#2D3634" stroke-linecap="round" stroke-linejoin="round"/>
<path d="M69.3503 48.8133C79.9361 51.5701 91.5227 52.5845 102.262 52.5845C106.864 52.5845 127.677 53.2987 125.808 64.5266C125.228 68.0076 115.973 72.2776 113.616 73.6753C108.805 76.5295 103.199 74.8324 98.5471 77.4465C94.7955 79.5548 87.5885 77.7259 83.4778 77.7259C79.0302 77.7259 74.2569 78.9829 70.2921 78.9829" stroke="#2D3634" stroke-linecap="round" stroke-linejoin="round"/>
<path d="M28.8515 150.636C23.0623 160.835 16.9456 171.62 13.0496 183.32C11.2224 188.807 7.91932 209.11 15.6658 209.718C19.1897 209.995 22.9557 212.459 26.5492 209.718C29.996 207.089 31.3649 201.542 32.8281 197.147C34.0698 193.419 34.7901 181.755 36.8571 179.548C38.5184 177.775 40.9592 168.598 42.0371 165.721" stroke="#2D3634" stroke-linecap="round" stroke-linejoin="round"/>
<path d="M52.328 3.06791C46.4785 4.59129 39.1974 6.26747 37.311 15.0799C36.308 19.7653 36.4849 30.2494 38.933 33.5169C40.5184 35.6329 41.5336 38.3847 43.119 40.5006C44.5724 42.4406 47.4585 43.3409 48.5607 45.1797C50.6737 48.7051 60.4227 47.3031 63.63 47.0653C68.5556 46.7001 72.8468 39.5212 74.0425 33.9359C74.7386 30.6837 76.6753 17.9186 74.7227 14.6609C71.3228 8.98863 70.2142 5.30938 64.1532 2.99808C58.8749 0.985218 56.3968 -0.275976 51.3862 3.06791" stroke="#2D3634" stroke-linecap="round" stroke-linejoin="round"/>
<path d="M211.733 133.149C209.306 131.885 207.398 130.755 205.034 129.853C203.928 129.432 202.734 128.936 201.632 128.609C200.66 128.32 199.817 127.194 198.835 126.903C197.718 126.572 196.832 125.572 195.727 125.244C195.008 125.031 193.213 124.133 192.774 123.4C192.391 122.762 190.772 121.8 190.132 121.326C188.986 120.476 187.718 120.318 186.713 119.275C183.315 115.747 178.662 114.845 175.213 111.162C173.634 109.476 171.605 108.305 169.912 107.014C168.869 106.218 168.165 105.084 167.132 104.317C166.236 103.653 165.45 102.912 164.801 101.828C163.661 99.927 163.125 97.7087 161.623 95.9051C160.044 94.0077 158.132 92.1549 156.788 89.9129C155.817 88.2919 153.752 85.2931 152.057 85.027C150.295 84.7502 148.342 82.079 146.773 80.9707C145.318 79.9422 143.741 77.7249 142.491 76.223C140.782 74.17 138.477 74.067 136.517 72.9043C134.543 71.7337 132.802 70.2688 130.922 68.9402C130.155 68.3981 129.134 67.5217 128.504 66.6816C127.829 65.7805 126.655 65.3402 126.26 64.2847" stroke="#2D3634" stroke-linecap="round" stroke-linejoin="round"/>
<path d="M69.9165 48.9639C67.7331 48.9639 65.5937 49.6771 63.4718 50.204C60.7816 50.872 57.7977 50.3887 55.0601 50.3887C53.534 50.3887 51.955 50.5484 50.4836 49.9665C49.5146 49.5834 48.13 50.2238 47.2316 49.5576C46.8539 49.2775 46.3106 49.3938 45.8972 49.1486C45.4767 48.8992 44.9214 48.5241 44.4738 48.4889C44.3166 48.4766 43.3852 48.0865 43.2679 47.9612C42.978 47.6517 42.5035 47.7677 42.1609 47.5391" stroke="#2D3634" stroke-linecap="round" stroke-linejoin="round"/>
</svg>
