<svg width="140" height="186" viewBox="0 0 140 186" fill="none" xmlns="http://www.w3.org/2000/svg">
<path d="M52.75 122.154C39.2396 111.171 27.97 95.7053 15.6944 82.9326C13.1545 80.2897 5.3125 77.7344 5.3125 83.2649C5.3125 89.4948 7.86915 90.1472 10.7431 95.2308C13.3156 99.7812 18.4007 111.014 22.5625 113.179" stroke="#2D3634" stroke-linecap="round" stroke-linejoin="round"/>
<path d="M62.8125 104.205C58.0619 97.6804 53.2508 88.8571 46.3611 84.7607C41.9153 82.1174 39.2711 75.5119 34.7014 72.7949C30.3177 70.1884 26.2453 62.9516 21.125 62.3248C18.1569 61.9615 15.3606 60.8291 11.7812 60.8291C9.04439 60.8291 8.41143 67.4772 9.94443 69.471C16.7012 78.2591 27.2663 86.138 32.625 95.8956C37.1569 104.148 52.75 110.472 52.75 120.658" stroke="#2D3634" stroke-linecap="round" stroke-linejoin="round"/>
<path d="M61.375 104.205C77.3269 110.429 59.1098 97.6327 58.5 92.2393C57.8146 86.1774 50.4263 74.8642 46.2812 70.5513C42.0556 66.1545 17.1623 36.8975 33.3437 36.8975C46.79 36.8975 51.6521 50.4561 59.618 59.6657C65.1099 66.0149 72.1153 90.7436 81.5 90.7436" stroke="#2D3634" stroke-linecap="round" stroke-linejoin="round"/>
<path d="M81.5 90.7436C78.4716 83.3292 74.6051 75.0451 70 69.0556C66.2456 64.1724 63.4906 58.1599 59.6181 53.6828C55.2471 48.6295 54.4101 42.5693 52.6701 36.2327C51.4207 31.6824 52.1584 18.9979 59.6181 26.7597C66.63 34.0558 71.6296 43.9112 78.9444 51.5223C83.0259 55.7691 85.7878 60.3653 87.3299 65.981C88.0375 68.5582 90.9033 70.7683 91.6424 73.4596C91.9375 74.5346 94.4375 80.5208 94.4375 78.7778" stroke="#2D3634" stroke-linecap="round" stroke-linejoin="round"/>
<path d="M93 78.7778C95.7867 86.2079 110.25 110.703 110.25 89.2479" stroke="#2D3634" stroke-linecap="round" stroke-linejoin="round"/>
<path d="M111.688 86.2564C111.688 66.0304 109.664 50.3732 121.75 34.6538C123.977 31.757 132.405 34.0619 133.17 37.6453C134.044 41.7383 133.25 46.9099 133.25 51.1068C133.25 54.4459 129.847 57.1427 129.017 60.1643C127.907 64.2077 128.938 70.0748 128.938 74.2906" stroke="#2D3634" stroke-linecap="round" stroke-linejoin="round"/>
<path d="M139 117.667C139 132.949 136.481 150.036 125.344 161.624C121.455 165.67 116.848 170.32 112.326 173.009C107.243 176.031 102.012 175.051 97.3125 177.496" stroke="#2D3634" stroke-linecap="round" stroke-linejoin="round"/>
<path d="M128.938 72.7949C131.753 87.8093 139 100.233 139 116.171" stroke="#2D3634" stroke-linecap="round" stroke-linejoin="round"/>
<path d="M19.6875 111.684C24.9559 119.221 32.5786 126.847 36.9375 134.784C39.8616 140.109 46.2352 147.797 51.3125 150.905C64.9116 159.229 77.8511 177.496 94.4375 177.496" stroke="#2D3634" stroke-linecap="round" stroke-linejoin="round"/>
<path d="M110.25 87.7522C111.934 79.2081 111.688 82.164 111.688 87.7522" stroke="#2D3634" stroke-linecap="round" stroke-linejoin="round"/>
<path d="M91.5625 177.496C93.9583 177.496 96.3542 177.496 98.75 177.496" stroke="#2D3634" stroke-linecap="round" stroke-linejoin="round"/>
<path d="M80.0625 12.9658C90.1701 12.9658 99.6638 18.8098 103.063 29.4188" stroke="#2D3634" stroke-linecap="round" stroke-linejoin="round"/>
<path d="M84.375 1C94.3439 1 95.0888 2.03349 102.344 7.066C107.139 10.3925 111.32 16.3064 113.125 21.9402" stroke="#2D3634" stroke-linecap="round" stroke-linejoin="round"/>
<path d="M8.1875 147.581C15.8651 160.683 33.3028 173.009 48.4375 173.009" stroke="#2D3634" stroke-linecap="round" stroke-linejoin="round"/>
<path d="M49.875 184.974C39.5147 184.974 26.4717 185.575 18.25 177.496C11.9379 171.293 1 163.333 1 153.564" stroke="#2D3634" stroke-linecap="round" stroke-linejoin="round"/>
</svg>
