<svg width="159" height="212" viewBox="0 0 159 212" fill="none" xmlns="http://www.w3.org/2000/svg">
<path d="M117.792 11.5454C114.44 14.6184 110.467 16.8939 107.071 19.8776C104.188 22.4111 101.855 25.4039 98.9771 27.9169C94.697 31.6542 90.2571 36.0821 85.2033 38.9505C83.1129 40.1369 81.6265 41.8214 79.7719 43.1817C78.6682 43.9912 76.118 45.1949 75.6185 46.111" stroke="#2D3634" stroke-linecap="round" stroke-linejoin="round"/>
<path d="M75.6185 46.1109C60.2298 45.9035 44.2657 39.9924 29.9661 35.2726C23.8534 33.255 17.9479 30.5118 12.3584 27.9494" stroke="#2D3634" stroke-linecap="round" stroke-linejoin="round"/>
<path d="M12.9973 26.778C23.3745 25.5 30.3178 20.4756 38.8765 15.6467C44.5519 12.4446 48.8087 4.70224 55.1707 2.7579" stroke="#2D3634" stroke-linecap="round" stroke-linejoin="round"/>
<path d="M115.236 11.5454C106.947 11.5454 98.7836 10.29 90.6347 8.87652C87.252 8.28975 84.0104 6.89396 80.7304 5.94723C77.6302 5.05241 74.3207 5.16032 71.2165 4.25476C68.0383 3.3276 64.9274 2.3481 61.5606 2.17171C59.2136 2.04875 55.902 1.92109 53.8928 1" stroke="#2D3634" stroke-linecap="round" stroke-linejoin="round"/>
<path d="M39.1959 39.6665C36.1765 43.3207 32.2537 46.6536 30.6405 51.0907C28.2872 57.5636 28.9721 64.6072 28.9721 71.3353C28.9721 77.5165 29.4106 82.392 32.451 87.9672C34.7292 92.1446 38.7681 95.5502 41.7519 99.2937C44.325 102.522 48.3122 104.328 52.0112 106.194C56.9512 108.685 64.7903 111.141 70.471 111.141C75.219 111.141 79.9068 111.605 84.5643 111.727C90.3058 111.877 98.3575 112.666 103.734 110.425C113.729 106.26 120.987 99.0488 120.987 88.2926C120.987 76.8637 123.86 65.1803 118.076 54.5733C115.038 49.0036 110.851 42.7565 105.331 38.8203C103.53 37.5355 101.561 36.4324 99.7581 35.1099C98.4331 34.138 95.5518 34.0365 94.7881 32.6363" stroke="#2D3634" stroke-linecap="round" stroke-linejoin="round"/>
<path d="M86.4813 19.1615C90.3213 18.4746 93.4335 17.9898 97.3441 17.9898C100.197 17.9898 104.988 17.1324 107.568 18.3153C115.341 21.8786 121.907 28.5744 127.093 34.6867C130.779 39.0317 132.672 44.4383 135.045 49.3332C135.834 50.9616 135.842 52.7623 134.725 54.6059C133.985 55.8277 134.187 57.485 133.447 58.7069C132.622 60.068 131.853 60.1021 132.844 58.6743C133.737 57.3868 135.867 52.1712 138.098 54.4431C139.011 55.3734 138.746 56.7676 139.66 57.6979C140.235 58.2837 142.374 60.0426 140.796 58.4139C138.326 55.8664 141.131 53.9584 143.848 56.2007C147.162 58.9348 145.988 56.8268 143.493 54.7686C141.66 53.2559 140.025 52.435 138.24 50.7978C135.842 48.5996 134.925 46.4511 133.625 43.7675C131.414 39.2065 127.707 36.0205 124.821 32.0504" stroke="#2D3634" stroke-linecap="round" stroke-linejoin="round"/>
<path d="M127.057 108.896C116.17 126.285 96.9486 129.343 77.5893 129.343C66.507 129.343 55.7381 128.77 45.9611 122.886C39.2647 118.857 33.3777 114.234 26.9116 109.972" stroke="#2D3634" stroke-linecap="round" stroke-linejoin="round"/>
<path d="M26.2433 109.961C23.778 108.95 20.0408 106.493 17.1851 108.061C14.339 109.624 11.6367 110.29 9.22478 112.675C1.34392 120.466 0.989992 131.12 0.989992 141.561C0.989992 154.841 0.976291 167.907 3.61292 180.94C5.04377 188.013 6.47985 194.447 6.47985 201.686" stroke="#2D3634" stroke-linecap="round" stroke-linejoin="round"/>
<path d="M126.708 108.875C131.675 108.875 138.655 107.656 143.177 109.539C150.164 112.447 150.692 121.917 151.839 128.294C154.979 145.757 154.706 164.335 154.706 182.026C154.706 187.049 155.618 191.612 156.384 196.529C156.905 199.879 158 209.959 158 206.57" stroke="#2D3634" stroke-linecap="round" stroke-linejoin="round"/>
<path d="M157.451 206.57C135.54 206.57 113.54 208.199 91.5727 208.199" stroke="#2D3634" stroke-linecap="round" stroke-linejoin="round"/>
<path d="M91.5727 208.199C79.5781 208.199 67.7696 210.37 55.7361 210.37C49.1991 210.37 42.6621 210.37 36.1251 210.37" stroke="#2D3634" stroke-linecap="round" stroke-linejoin="round"/>
<path d="M6.47989 198.972C6.47989 203.062 7.02887 206.934 7.02887 210.912" stroke="#2D3634" stroke-linecap="round" stroke-linejoin="round"/>
<path d="M35.3328 210.288C28.6396 210.288 22.0166 210.644 15.3436 210.644C14.1376 210.644 8.11198 209.988 7.60005 211" stroke="#2D3634" stroke-linecap="round" stroke-linejoin="round"/>
</svg>
